<svg xmlns="http://www.w3.org/2000/svg" viewBox="0 0 100 100">
  <!-- Soft Background Circle (Optional, makes it look like a sticker) -->
  <circle cx="50" cy="50" r="45" fill="#f0fdf4" />

  <!-- HDB Block (Chunky & Rounded) -->
  <!-- Main Body -->
  <rect x="25" y="35" width="50" height="45" rx="8" ry="8" fill="white" stroke="#6366f1" stroke-width="6" />
  
  <!-- Roof (Rounded Triangle ish) -->
  <path d="M22 38 L50 15 L78 38" fill="none" stroke="#6366f1" stroke-width="6" stroke-linecap="round" stroke-linejoin="round" />

  <!-- Cute Windows (Rounded Rects) -->
  <rect x="33" y="45" width="12" height="12" rx="4" fill="#a5b4fc" />
  <rect x="55" y="45" width="12" height="12" rx="4" fill="#a5b4fc" />
  
  <!-- Heart Window / Feature in center bottom -->
  <path d="M50 72 C50 72 45 68 45 65 C45 62.5 47 61 48.5 61 C49.5 61 50 62 50 62 C50 62 50.5 61 51.5 61 C53 61 55 62.5 55 65 C55 68 50 72 50 72 Z" fill="#ef4444" />

  <!-- Paint Roller (Playful Angle) -->
  <g transform="translate(65, 55) rotate(-15)">
      <rect x="0" y="0" width="20" height="8" rx="4" fill="#10b981" />
      <path d="M20 4 L24 4 L24 10 L10 25" fill="none" stroke="#10b981" stroke-width="4" stroke-linecap="round" stroke-linejoin="round" />
  </g>
</svg>
